<mxfile host="app.diagrams.net" modified="2023-05-02T17:12:06.362Z" agent="Mozilla/5.0 (Windows NT 10.0; Win64; x64) AppleWebKit/537.36 (KHTML, like Gecko) Chrome/112.0.0.0 Safari/537.36" etag="AZMb3mnAZLOzw2ewPOz1" version="21.2.3" type="device">
  <diagram name="Page-1" id="RtSPCdPEauWlCQn3shcn">
    <mxGraphModel dx="1050" dy="573" grid="1" gridSize="10" guides="1" tooltips="1" connect="1" arrows="1" fold="1" page="1" pageScale="1" pageWidth="850" pageHeight="1100" math="0" shadow="0">
      <root>
        <mxCell id="0" />
        <mxCell id="1" parent="0" />
        <mxCell id="FaoUBu9bGjASSPdcJLa0-3" value="" style="edgeStyle=orthogonalEdgeStyle;rounded=0;orthogonalLoop=1;jettySize=auto;html=1;" edge="1" parent="1" source="FaoUBu9bGjASSPdcJLa0-1" target="FaoUBu9bGjASSPdcJLa0-2">
          <mxGeometry relative="1" as="geometry" />
        </mxCell>
        <mxCell id="FaoUBu9bGjASSPdcJLa0-1" value="&lt;font style=&quot;font-size: 23px;&quot;&gt;شروع&lt;/font&gt;" style="ellipse;whiteSpace=wrap;html=1;fillColor=#d5e8d4;strokeColor=#82b366;" vertex="1" parent="1">
          <mxGeometry x="365" width="120" height="80" as="geometry" />
        </mxCell>
        <mxCell id="FaoUBu9bGjASSPdcJLa0-5" value="" style="edgeStyle=orthogonalEdgeStyle;rounded=0;orthogonalLoop=1;jettySize=auto;html=1;" edge="1" parent="1" source="FaoUBu9bGjASSPdcJLa0-2" target="FaoUBu9bGjASSPdcJLa0-4">
          <mxGeometry relative="1" as="geometry" />
        </mxCell>
        <mxCell id="FaoUBu9bGjASSPdcJLa0-2" value="&lt;font style=&quot;font-size: 18px;&quot;&gt;i = 0&lt;br&gt;t = 0&lt;/font&gt;" style="rounded=0;whiteSpace=wrap;html=1;fillColor=#dae8fc;strokeColor=#6c8ebf;" vertex="1" parent="1">
          <mxGeometry x="365" y="100" width="120" height="60" as="geometry" />
        </mxCell>
        <mxCell id="FaoUBu9bGjASSPdcJLa0-7" value="" style="edgeStyle=orthogonalEdgeStyle;rounded=0;orthogonalLoop=1;jettySize=auto;html=1;" edge="1" parent="1" source="FaoUBu9bGjASSPdcJLa0-4" target="FaoUBu9bGjASSPdcJLa0-6">
          <mxGeometry relative="1" as="geometry" />
        </mxCell>
        <mxCell id="FaoUBu9bGjASSPdcJLa0-4" value="&lt;div style=&quot;direction: rtl;&quot;&gt;&lt;span style=&quot;background-color: initial;&quot;&gt;&lt;font style=&quot;font-size: 21px;&quot;&gt;nرا بگیر&lt;/font&gt;&lt;/span&gt;&lt;/div&gt;" style="shape=parallelogram;perimeter=parallelogramPerimeter;whiteSpace=wrap;html=1;fixedSize=1;fillColor=#fff2cc;strokeColor=#d6b656;" vertex="1" parent="1">
          <mxGeometry x="365" y="190" width="120" height="60" as="geometry" />
        </mxCell>
        <mxCell id="FaoUBu9bGjASSPdcJLa0-9" style="edgeStyle=orthogonalEdgeStyle;rounded=0;orthogonalLoop=1;jettySize=auto;html=1;entryX=0;entryY=0.5;entryDx=0;entryDy=0;" edge="1" parent="1" source="FaoUBu9bGjASSPdcJLa0-6" target="FaoUBu9bGjASSPdcJLa0-8">
          <mxGeometry relative="1" as="geometry" />
        </mxCell>
        <mxCell id="FaoUBu9bGjASSPdcJLa0-13" value="" style="edgeStyle=orthogonalEdgeStyle;rounded=0;orthogonalLoop=1;jettySize=auto;html=1;" edge="1" parent="1" source="FaoUBu9bGjASSPdcJLa0-6" target="FaoUBu9bGjASSPdcJLa0-11">
          <mxGeometry relative="1" as="geometry" />
        </mxCell>
        <mxCell id="FaoUBu9bGjASSPdcJLa0-6" value="&lt;font style=&quot;font-size: 15px;&quot;&gt;n % 2 != 0&lt;/font&gt;" style="rhombus;whiteSpace=wrap;html=1;fillColor=#ffe6cc;strokeColor=#d79b00;" vertex="1" parent="1">
          <mxGeometry x="385" y="270" width="80" height="80" as="geometry" />
        </mxCell>
        <mxCell id="FaoUBu9bGjASSPdcJLa0-12" style="edgeStyle=orthogonalEdgeStyle;rounded=0;orthogonalLoop=1;jettySize=auto;html=1;entryX=1;entryY=0.5;entryDx=0;entryDy=0;" edge="1" parent="1" source="FaoUBu9bGjASSPdcJLa0-8" target="FaoUBu9bGjASSPdcJLa0-11">
          <mxGeometry relative="1" as="geometry">
            <Array as="points">
              <mxPoint x="590" y="400" />
            </Array>
          </mxGeometry>
        </mxCell>
        <mxCell id="FaoUBu9bGjASSPdcJLa0-8" value="&lt;font style=&quot;font-size: 22px;&quot;&gt;t = t + n&lt;/font&gt;" style="rounded=0;whiteSpace=wrap;html=1;fillColor=#dae8fc;strokeColor=#6c8ebf;" vertex="1" parent="1">
          <mxGeometry x="530" y="280" width="120" height="60" as="geometry" />
        </mxCell>
        <mxCell id="FaoUBu9bGjASSPdcJLa0-10" value="&lt;font style=&quot;font-size: 21px;&quot;&gt;بله&lt;/font&gt;" style="text;html=1;strokeColor=none;fillColor=none;align=center;verticalAlign=middle;whiteSpace=wrap;rounded=0;" vertex="1" parent="1">
          <mxGeometry x="465" y="280" width="60" height="30" as="geometry" />
        </mxCell>
        <mxCell id="FaoUBu9bGjASSPdcJLa0-16" value="" style="edgeStyle=orthogonalEdgeStyle;rounded=0;orthogonalLoop=1;jettySize=auto;html=1;" edge="1" parent="1" source="FaoUBu9bGjASSPdcJLa0-11" target="FaoUBu9bGjASSPdcJLa0-15">
          <mxGeometry relative="1" as="geometry" />
        </mxCell>
        <mxCell id="FaoUBu9bGjASSPdcJLa0-11" value="&lt;span style=&quot;font-size: 22px;&quot;&gt;i = i +1&lt;/span&gt;" style="rounded=0;whiteSpace=wrap;html=1;fillColor=#dae8fc;strokeColor=#6c8ebf;" vertex="1" parent="1">
          <mxGeometry x="365" y="370" width="120" height="60" as="geometry" />
        </mxCell>
        <mxCell id="FaoUBu9bGjASSPdcJLa0-14" value="&lt;font style=&quot;font-size: 21px;&quot;&gt;خیر&lt;/font&gt;" style="text;html=1;strokeColor=none;fillColor=none;align=center;verticalAlign=middle;whiteSpace=wrap;rounded=0;" vertex="1" parent="1">
          <mxGeometry x="350" y="340" width="60" height="30" as="geometry" />
        </mxCell>
        <mxCell id="FaoUBu9bGjASSPdcJLa0-17" style="edgeStyle=orthogonalEdgeStyle;rounded=0;orthogonalLoop=1;jettySize=auto;html=1;entryX=0;entryY=0.5;entryDx=0;entryDy=0;" edge="1" parent="1" source="FaoUBu9bGjASSPdcJLa0-15" target="FaoUBu9bGjASSPdcJLa0-4">
          <mxGeometry relative="1" as="geometry">
            <Array as="points">
              <mxPoint x="180" y="500" />
              <mxPoint x="180" y="220" />
            </Array>
          </mxGeometry>
        </mxCell>
        <mxCell id="FaoUBu9bGjASSPdcJLa0-20" value="" style="edgeStyle=orthogonalEdgeStyle;rounded=0;orthogonalLoop=1;jettySize=auto;html=1;" edge="1" parent="1" source="FaoUBu9bGjASSPdcJLa0-15" target="FaoUBu9bGjASSPdcJLa0-19">
          <mxGeometry relative="1" as="geometry" />
        </mxCell>
        <mxCell id="FaoUBu9bGjASSPdcJLa0-15" value="&lt;font style=&quot;font-size: 17px;&quot;&gt;i &amp;lt; 10&lt;/font&gt;" style="rhombus;whiteSpace=wrap;html=1;fillColor=#ffe6cc;strokeColor=#d79b00;" vertex="1" parent="1">
          <mxGeometry x="385" y="460" width="80" height="80" as="geometry" />
        </mxCell>
        <mxCell id="FaoUBu9bGjASSPdcJLa0-18" value="&lt;font style=&quot;font-size: 21px;&quot;&gt;بله&lt;/font&gt;" style="text;html=1;strokeColor=none;fillColor=none;align=center;verticalAlign=middle;whiteSpace=wrap;rounded=0;" vertex="1" parent="1">
          <mxGeometry x="250" y="470" width="60" height="30" as="geometry" />
        </mxCell>
        <mxCell id="FaoUBu9bGjASSPdcJLa0-23" value="" style="edgeStyle=orthogonalEdgeStyle;rounded=0;orthogonalLoop=1;jettySize=auto;html=1;" edge="1" parent="1" source="FaoUBu9bGjASSPdcJLa0-19" target="FaoUBu9bGjASSPdcJLa0-22">
          <mxGeometry relative="1" as="geometry" />
        </mxCell>
        <mxCell id="FaoUBu9bGjASSPdcJLa0-19" value="&lt;div style=&quot;direction: rtl;&quot;&gt;&lt;span style=&quot;background-color: initial;&quot;&gt;&lt;font style=&quot;font-size: 22px;&quot;&gt;t را نمایش بده&lt;/font&gt;&lt;/span&gt;&lt;/div&gt;" style="shape=document;whiteSpace=wrap;html=1;boundedLbl=1;fillColor=#d5e8d4;strokeColor=#82b366;" vertex="1" parent="1">
          <mxGeometry x="365" y="570" width="120" height="80" as="geometry" />
        </mxCell>
        <mxCell id="FaoUBu9bGjASSPdcJLa0-21" value="&lt;font style=&quot;font-size: 21px;&quot;&gt;خیر&lt;/font&gt;" style="text;html=1;strokeColor=none;fillColor=none;align=center;verticalAlign=middle;whiteSpace=wrap;rounded=0;" vertex="1" parent="1">
          <mxGeometry x="440" y="535" width="60" height="30" as="geometry" />
        </mxCell>
        <mxCell id="FaoUBu9bGjASSPdcJLa0-22" value="&lt;font style=&quot;font-size: 23px;&quot;&gt;پایان&lt;/font&gt;" style="ellipse;whiteSpace=wrap;html=1;fillColor=#d5e8d4;strokeColor=#82b366;" vertex="1" parent="1">
          <mxGeometry x="365" y="680" width="120" height="80" as="geometry" />
        </mxCell>
      </root>
    </mxGraphModel>
  </diagram>
</mxfile>
